Patient4_TMGait_0pt6_01_right_48_EMG.mot
version=1
nRows=40
nColumns=33
inDegrees=no
endheader
time	1LAddLong	2LGlutMax	3LGlutMed	4LIliopsoas	5LSemiMemb	6LBicFemLong	7LRecFem	8LVastMed	9LVastLat	10LGasMed	11LTibAnt	12lTibPost	13LPeroneusLong	14LSol	15LExtDigLong	16LFlexDigLong	17RAddLong	18RGlutMax	19RGlutMed	20RIliopsoas	21RSemiMemb	22RBicFemLong	23RRecFem	24RVastMed	25RVastLat	26RGasMed	27RTibAnt	28RTibPost	29RPeroneusLong	30RSol	31RExtDigLong	32RFlexDigLong
58.27	-0.00885	-0.019226	0.22354	-0.001678	-0.004578	0.004272	0.2063	0.001526	0.11566	-0.11932	0.215	0.016022	-0.085907	0.18616	0.58807	0.003357	0.008392	-0.43594	-0.24307	-0.092926	-0.29327	-0.15793	0.092926	0.017242	-0.12848	0	0.045776	-0.009918	-0.51025	0.25559	-0.00351	-0.016327
58.271	-0.005646	-0.030975	0.22018	-0.002899	0.005798	-0.007629	0.03891	0.00412	0.11963	-0.19928	0.21164	0.016632	-0.030212	0.16647	0.22934	0.009613	-0.007782	-0.49957	-0.67581	-0.14435	-0.054321	-0.24078	-0.059509	0.13626	-0.17197	-0.024567	0.06897	-0.027161	-0.29297	0.22644	-0.001373	-0.00946
58.272	-0.008698	0.067139	0.21316	-0.009613	0.005188	0.013428	-0.10773	-0.008545	0.11459	-0.1387	0.26474	0.027161	-0.046844	0.18387	-0.085907	0.003967	0.006256	-0.34363	-0.29297	-0.11383	0.003052	-0.21652	-0.059662	0.042114	-0.11841	-0.009766	0.042572	-0.014954	0.066071	0.076752	-0.004578	-0.010834
58.273	0.009308	0.11597	0.19211	-0.015564	0.010834	-0.011597	-0.2652	-0.000458	0.13046	-0.093384	0.1564	0.020752	-0.1181	0.12817	-0.495	0.000305	0.058289	-0.31326	-0.33493	-0.040741	-0.062561	-0.18097	-0.099335	0.031281	0.036316	0.006256	0.018158	-0.005951	0.081482	-0.31326	-0.005798	-0.010223
58.274	0.031586	0.082855	0.18005	-0.011749	0.001221	-0.012512	-0.38803	-0.007172	0.12924	-0.095215	-0.17044	0.010681	-0.1152	0.1181	0.29862	-0.00473	0.073547	-0.54535	-0.19058	-0.011292	-0.095062	-0.2504	0.033264	0.002899	0.005341	-0.022583	-0.004272	-0.045624	0.36591	-0.62912	0	-0.022125
58.275	0.034637	0.076599	0.15595	0.009766	-0.002441	-0.004272	-0.33539	-0.008698	0.14114	-0.080566	-0.11765	0.014801	-0.10834	0.14542	-0.03891	-0.008392	0.093689	-0.81406	0.002441	0.13229	-0.19882	-0.32898	0.11078	-0.054932	-0.046234	-0.02243	-0.010071	-0.043182	0.041351	-0.65597	-0.002899	-0.023041
58.276	0.027313	0.03418	0.14313	0.000305	0.001221	-0.011444	-0.22232	-0.015869	0.13718	-0.076294	0.057678	0.018463	-0.085602	0.13763	1.088	-0.00061	0.059357	-1.1737	-1.1443	0.24017	-0.045776	-0.3891	0.18005	-0.1683	-0.10132	-0.023651	0.027161	-0.043335	-0.70435	-0.20477	-0.004272	-0.016785
58.277	0.007782	0.00473	0.13519	-0.004883	0.005341	-0.020752	-0.23468	-0.010223	0.11444	-0.066681	-0.085297	0.014038	-0.068054	0.075989	0.013275	0.011292	0.04303	-1.2331	-1.5947	0.021973	0.1796	-0.36423	0.14557	-0.18234	-0.11246	-0.014496	0.064697	-0.04425	-1.1169	-0.062256	0.000305	-0.013885
58.278	0.018158	0.015717	0.11276	0.002289	0.010529	-0.013275	-0.15884	-0.000153	0.096893	-0.085449	-0.38666	0.019073	0.080414	-0.019989	-0.32272	0.01358	-0.036621	-1.3048	-1.1092	-0.046234	-0.30121	-0.1474	0.085754	0.086365	-0.076904	-0.002747	0.11017	-0.043182	-1.2773	-0.17441	0.000916	-0.031128
58.279	-0.000305	0.005646	0.11902	0.00824	0.014343	-0.019379	-0.083008	-0.00473	0.10193	-0.05188	-0.36911	0.008087	0.05661	-0.11566	-0.80582	0.003204	-0.067596	-1.3652	-0.7132	-0.020447	-0.39597	-0.12909	0.11429	0.1889	-0.046387	0.034485	0.13382	-0.037689	-0.95123	-0.20203	-0.005493	-0.026245
58.28	-0.001678	0.008545	0.1268	0.005646	0.00885	-0.025177	0.000458	-0.007782	0.089722	-0.032349	-0.18066	0.010376	-0.011444	-0.014038	-0.96283	0.001831	-0.079193	-1.4337	-0.52963	0.055847	-0.11536	-0.25482	0.1831	0.19318	-0.063171	0.054779	0.052948	-0.030518	0.5098	-0.24582	-0.003815	-0.022583
58.281	0.003815	0.036926	0.093842	0.02243	0.005493	-0.010223	0.092316	-0.003662	0.08194	-0.001526	-0.04303	0.010529	-0.067139	0.016785	-0.48233	-0.00885	-0.09903	-1.396	-0.70648	0.11154	0.12405	-0.29953	0.19089	0.23025	-0.080414	0.044861	0.022278	-0.03952	0.96954	-0.15472	0.001373	-0.03067
58.282	-0.01236	-0.014496	0.055847	0.029602	0.006256	-0.010071	0.18387	-0.001373	0.068359	0.044403	-0.038605	0.009613	-0.071716	-0.036316	0.015869	0.002594	-0.084381	-1.4261	-0.98038	0.14099	-0.18601	-0.22705	0.22751	0.14465	-0.088501	0.016632	0.002594	-0.049438	0.62775	0.053864	0.002747	-0.028076
58.283	-0.00351	-0.074921	0.036163	0.003052	0.011902	-0.015106	0.22751	-0.004578	0.050201	0.025177	-0.037231	0.014648	-0.085144	-0.045013	0.04364	0.020599	-0.095825	-1.4438	-0.4805	0.08667	-0.15595	-0.11078	0.23483	0.22415	-0.057373	-0.066376	-0.001526	-0.068817	0.38132	0.1091	0	-0.027618
58.284	-0.002441	-0.103	0.034485	-0.015564	0.003815	0.006561	0.26276	-0.006409	0.028381	0.038605	-0.20355	0.015106	0.011139	-0.015564	0.43854	0.012512	-0.074463	-1.5016	0.003052	0.005951	0.15717	-0.14069	0.24429	0.24338	-0.041504	-0.028839	-0.019684	-0.23636	0.18662	0.11749	-0.003967	-0.031128
58.285	-0.000916	-0.12375	0.020905	-0.013428	0.009613	-0.01358	0.24033	-0.007935	0.021515	-0.001526	-0.39597	0.012207	0.042725	-0.008087	0.15091	0.010529	-0.052643	-1.5706	-0.29404	0.059357	0.06012	-0.20554	0.31021	0.17364	-0.03891	-0.001068	0.040283	-0.04303	0.16495	0.11627	-0.003967	-0.041656
58.286	-0.007019	-0.20554	0.002136	0.002289	0.002899	0.001831	0.242	-0.00946	0.01358	0.001526	-0.21606	0.014038	-0.032806	0.068665	0.91812	0.002441	-0.061646	-1.5558	-0.73746	0.057678	-0.002594	-0.16327	0.29816	0.11566	-0.047913	-0.002899	0.075073	0.17425	0.30609	-0.17868	-0.002899	-0.026245
58.287	-0.00885	-0.22583	-0.000153	0.007172	-0.001678	-0.00412	0.24017	0.000763	0.015106	-0.002899	0.11459	0.006714	-0.15533	0.22659	0.12802	-0.010071	-0.053101	-1.5379	-0.67749	0.016174	-0.015869	-0.16205	0.27679	0.07309	-0.070343	0.011749	0.090637	0.089111	0.25833	-0.32944	-0.005493	-0.044556
58.288	-0.000763	-0.21622	-0.01709	0.00473	-0.001526	-0.005646	0.25711	0.011444	0.009918	-0.002747	0.21988	0.009918	-0.15961	0.27771	-0.19486	-0.00473	-0.050354	-1.5036	-0.54932	0.04776	-0.00824	-0.19028	0.24384	0.12375	-0.063782	-0.029144	0.1471	0.037994	0.1149	-0.28183	-0.005188	-0.048218
58.289	-0.00824	-0.15854	-0.035553	-0.012207	0.005341	-0.020142	0.2655	-0.001068	0.00824	0.016479	0.14801	0.005188	-0.13397	0.26611	-0.10071	-0.008087	-0.018768	-1.6862	-1.1302	0.093689	-0.03418	-0.25513	0.28	0.035706	-0.097046	-0.060425	0.20142	0.013428	-0.034943	-0.4805	-0.004272	-0.044098
58.29	-0.013123	-0.10819	-0.022583	-0.007935	0.003357	-0.023499	0.25589	-0.012665	0.00473	0.030518	0.13306	0.00885	-0.16098	0.15152	-0.92224	-0.003815	-0.027008	-1.6916	-0.86899	0.007172	-0.051117	-0.24506	0.2359	0.041962	-0.10696	-0.10681	0.17868	-0.080566	-0.13596	-0.71732	-0.002289	-0.03952
58.291	-0.004883	-0.088043	-0.026855	-0.010986	0.000153	-0.01297	0.21332	-0.000763	0.003967	0.016174	-0.35431	0.012665	-0.031281	0.12161	-0.74112	-0.001221	-0.032043	-1.6353	-0.15686	0.011749	-0.091858	-0.22797	0.13672	0.11368	-0.09613	-0.13428	0.041046	-0.16312	0.17227	-0.82687	-0.004578	-0.041809
58.292	-0.003357	-0.11185	-0.01236	-0.007935	0.006714	-0.020142	0.21423	0.005646	0.021362	-0.02594	-0.44983	0.009918	0.042114	0.14938	-0.2945	0.004578	-0.009766	-1.7737	0.031128	0.027161	-0.068512	-0.21011	0.34164	0.10346	-0.098114	-0.12405	-0.095825	-0.15182	0.12665	-1.0349	-0.000763	-0.032043
58.293	0.003052	-0.15533	-0.009155	-0.013123	0.009003	-0.040894	0.22583	-0.003967	0.016937	-0.011597	-0.28015	0.005646	0.01236	0.038757	0.16419	0.002747	-0.009613	-1.8399	-0.5098	0.035553	-0.054932	-0.23148	0.6012	0.004578	-0.23315	0.019226	-0.072937	-0.073547	0.031128	-0.42893	-0.002747	-0.026093
58.294	-0.005951	-0.19424	-0.021362	-0.020752	0.001221	-0.030975	0.22675	-0.010681	0.008545	0.019684	0.050964	0.00824	-0.023956	-0.1358	-0.13962	-0.009155	0.017242	-1.7841	-1.1539	0.072327	-0.057373	-0.27237	0.52094	-0.051117	-0.28748	-0.014038	-0.002441	0.005951	-0.27802	0.47745	-0.004578	-0.028687
58.295	-0.001526	-0.19516	-0.022278	-0.019226	0.004883	-0.030823	0.22293	-0.007324	0.005798	0.035553	0.18784	0.005798	-0.033569	-0.17517	-0.23911	0.002747	-0.005341	-1.5106	-0.95383	-0.05188	-0.040131	-0.32272	0.096741	-0.062256	-0.11566	0.007324	0.064392	0.35294	-0.29678	0.65826	-0.001373	-0.029907
58.296	-0.008392	-0.23972	-0.007935	0.005798	0.005188	-0.042877	0.26443	-0.006866	-0.001831	0.044403	0.31097	0.010986	-0.074158	-0.14053	-0.21057	-0.00412	-0.019989	-1.3359	-0.56198	-0.088348	-0.004578	-0.39475	-0.044708	-0.037231	-0.028992	0.068512	0.064087	0.093842	-0.10941	0.37125	0.006714	-0.03418
58.297	0.006256	-0.2179	0.019226	0.036621	0.001068	-0.051575	0.29419	-0.008698	-0.025787	0.045776	0.28824	0.009308	-0.092468	-0.20294	0.089111	-0.010223	-0.029602	-1.2621	-1.138	-0.053406	-0.027924	-0.36224	-0.2034	0.12924	0.06424	0.069885	0.090637	-0.2385	0.22232	-0.16083	-0.006866	-0.055237
58.298	0.001984	-0.27847	0.022278	0.067444	0.015564	-0.039063	0.30624	-0.012054	-0.065155	0.033875	0.26032	0.013123	-0.13626	-0.098114	0.16419	0.003204	-0.016327	-1.109	-1.194	0.030975	-0.02533	-0.33768	-0.37186	0.12665	0.12482	0.056458	0.097961	-0.46204	0.048218	-0.60715	0.000458	-0.05249
58.299	0.005493	-0.31372	-0.012054	0.048523	0.002441	-0.023956	0.28198	-0.001678	-0.088654	0.00473	0.081787	0.007019	-0.062103	0.031738	0.43808	0.006561	0.002441	-0.94025	-0.29663	0.041656	-0.026093	-0.32135	-0.36941	0.13245	0.13214	0.047455	0.11139	0.21606	-0.084076	0.027161	-0.000916	-0.054016
58.3	0.004578	-0.33249	-0.024414	-0.001526	0.010986	-0.012665	0.29694	0.021057	-0.10941	-0.040741	0.004883	0.005646	-0.055237	0.076599	0.039978	0.01236	0.013123	-0.87372	-0.15717	0.027924	-0.028992	-0.32944	-0.1474	0.13611	0.16602	-0.005493	0.10986	0.074921	-0.10239	0.74204	0.005646	-0.038147
58.301	0.005798	-0.37125	0.001068	-0.033417	0.00351	-0.009766	0.31113	0.017242	-0.12497	-0.041656	-0.23254	0.014954	0.007782	0.013428	1.0568	-0.004425	0.023193	-0.88058	-0.23865	-0.030823	-0.045624	-0.31937	-0.16998	0.097046	0.11627	-0.021362	0.15396	-0.27847	-0.068054	0.59876	-0.001831	-0.044556
58.302	0.005341	-0.36484	0.033417	-0.02533	0.007172	-0.011749	0.35706	0.00824	-0.11902	-0.00473	-0.22324	0.009003	-0.045624	-0.080566	0.01709	-0.006714	0.016022	-0.83649	-0.19043	-0.099335	-0.073242	-0.27618	-0.159	0.021515	0.037231	0.010223	0.15961	0.5455	0.14633	0.56534	-0.005188	-0.032349
58.303	0.005341	-0.32455	0.019073	-0.016785	0.008698	-0.015564	0.42526	0.012207	-0.11765	0.054626	-0.081482	0.009613	-0.15472	-0.16159	0.48065	-0.004883	0.003052	-0.73334	-0.38803	-0.073547	-0.043335	-0.26535	-0.13138	0.063324	0.018463	0.032196	0.037689	0.25574	0.29709	0.097351	-0.000458	-0.019989
58.304	0.008392	-0.33112	-0.009613	-0.010376	0.011139	-0.012512	0.50217	0.002594	-0.12512	0.089722	0.14694	0.011749	-0.22507	-0.11765	0.16922	-0.021973	-0.022278	-0.62164	-0.65857	0.009918	-0.02655	-0.27069	-0.13229	0.000763	-0.028076	0.050354	-0.043182	-0.053406	0.14114	-0.48828	-0.002136	-0.024109
58.305	-0.006561	-0.26413	0.020752	-0.009766	0.01236	-0.014954	0.50446	0.007477	-0.11948	0.064545	0.26627	0.007629	-0.19333	0.000763	0.010681	0.001984	0.001831	-0.43366	-0.63828	0.023041	-0.042267	-0.25269	-0.079041	-0.053711	-0.06424	0.04425	-0.14008	0.051422	-0.12192	-0.59006	-0.002747	-0.016937
58.306	0.001068	-0.22095	0.045013	0.001373	0.004272	0.010529	0.44479	0.002441	-0.10544	0.045013	0.000305	0.011902	-0.090179	0.071869	-0.2507	0.003967	-0.013275	-0.32227	-0.47165	0.012817	-0.04425	-0.23651	-0.058746	-0.063629	0.009308	0.033875	-0.33218	0.04715	-0.35858	-0.64926	-0.001068	-0.021973
58.307	-0.002594	-0.1944	0.002747	-0.002136	0.01236	0.00412	0.40283	-0.00061	-0.097351	0.04715	-0.27176	0.004425	-0.089111	0.033722	-0.055847	0.00351	0.008392	-0.24216	-0.50507	-0.001678	-0.12421	-0.18158	-0.13504	-0.1033	-0.001526	0.025787	-0.24017	-0.018311	-0.48233	-0.2652	-0.00061	-0.029144
58.308	0.000763	-0.16983	-0.056305	-0.004272	0.012054	-0.035858	0.33936	-0.004578	-0.086365	0.073547	-0.20798	0.007019	-0.1239	-0.018616	0.3656	-0.011292	0.010986	-0.15427	-0.22415	-0.039978	-0.15472	-0.13412	-0.22995	-0.007477	-0.014191	0.029297	0.002136	-0.001678	-0.23422	0.69992	-0.000763	-0.016022
58.309	0.004883	-0.15793	-0.11459	0.024719	0.014038	-0.015106	0.29434	0.003052	-0.084686	0.056458	-0.015564	0.009155	-0.081635	-0.003967	-0.04425	-0.005035	0.007782	0.084534	-0.017548	-0.028229	-0.084076	-0.19073	-0.26474	0.015717	0.10284	0.001221	0.34882	-0.02594	-0.14114	0.83756	-0.001526	-0.015259
